<svg width="19" height="15" viewBox="0 0 19 15" fill="none" xmlns="http://www.w3.org/2000/svg">
<path d="M18.2381 8.15451C18.2381 7.80602 18.1571 7.47316 18.0109 7.16864C17.9958 7.09123 17.9786 7.01393 17.957 6.93552L16.3728 3.12151L16.362 3.08719C15.8077 1.48389 15.019 0 13.0191 0H5.37269C3.32348 0 2.59936 1.52066 2.03291 3.07829L0.375772 6.90161C0.136204 7.27448 0 7.70102 0 8.15451V9.34133C0 9.52481 0.0223271 9.7043 0.0647813 9.87718C0.0235087 9.98163 0 10.0942 0 10.2129V13.7427C0 14.2603 0.431957 14.68 0.964793 14.68H2.9669C3.49945 14.68 3.93141 14.2603 3.93141 13.7427V11.9775H14.4211V13.7427C14.4211 14.2603 14.8531 14.68 15.386 14.68H17.2735C17.8065 14.68 18.2384 14.2603 18.2384 13.7427V10.2125C18.2384 10.0942 18.2146 9.98116 18.1737 9.87707C18.216 9.70391 18.2384 9.52462 18.2384 9.34117V8.15455H18.2381V8.15451ZM3.20867 3.46121C3.83949 1.73229 4.34678 1.2045 5.37269 1.2045H13.0187C14.037 1.2045 14.6041 1.79316 15.1803 3.45377L16.3364 5.72964C15.9589 5.59384 15.5435 5.51848 15.1071 5.51848H3.13106C2.73809 5.51848 2.36256 5.57987 2.01608 5.69097L3.20867 3.46121ZM4.20178 9.79205H2.08934C1.709 9.79205 1.40054 9.49212 1.40054 9.12269C1.40054 8.75314 1.709 8.45341 2.08934 8.45341H4.20178C4.58228 8.45341 4.89074 8.75314 4.89074 9.12269C4.89074 9.49212 4.58207 9.79205 4.20178 9.79205ZM11.6641 9.658H6.75046C6.50954 9.658 6.31434 9.46826 6.31434 9.23434C6.31434 9 6.50954 8.81034 6.75046 8.81034H11.6641C11.9053 8.81034 12.1004 9 12.1004 9.23434C12.1004 9.46826 11.9053 9.658 11.6641 9.658ZM16.0955 9.79205H13.9832C13.6025 9.79205 13.2942 9.49212 13.2942 9.12269C13.2942 8.75314 13.6028 8.45341 13.9832 8.45341H16.0955C16.4762 8.45341 16.7848 8.75314 16.7848 9.12269C16.7848 9.49212 16.4762 9.79205 16.0955 9.79205Z" fill="#72767C"/>
</svg>
