<svg width="16" height="16" viewBox="0 0 16 16" fill="none" xmlns="http://www.w3.org/2000/svg">
<path d="M15.7753 14.6349L12.8091 11.6937C13.9605 10.2585 14.5181 8.43697 14.3672 6.60351C14.2164 4.77005 13.3685 3.06405 11.998 1.8363C10.6275 0.608549 8.83851 -0.0476265 6.9989 0.00269422C5.15928 0.0530149 3.40887 0.806007 2.10758 2.10684C0.806291 3.40767 0.0530336 5.15747 0.00269517 6.99644C-0.0476432 8.8354 0.608763 10.6238 1.83694 11.9938C3.06512 13.3638 4.77172 14.2114 6.60583 14.3622C8.43994 14.513 10.2621 13.9556 11.6978 12.8046L14.64 15.7458C14.7143 15.8207 14.8028 15.8802 14.9002 15.9208C14.9976 15.9613 15.1021 15.9822 15.2077 15.9822C15.3132 15.9822 15.4177 15.9613 15.5152 15.9208C15.6126 15.8802 15.701 15.8207 15.7753 15.7458C15.9194 15.5968 16 15.3976 16 15.1903C16 14.9831 15.9194 14.7839 15.7753 14.6349V14.6349ZM7.21243 12.8046C6.10552 12.8046 5.02346 12.4765 4.10309 11.8617C3.18272 11.247 2.46538 10.3732 2.04178 9.3509C1.61818 8.3286 1.50735 7.20369 1.7233 6.11842C1.93925 5.03316 2.47228 4.03628 3.25499 3.25384C4.0377 2.47141 5.03493 1.93857 6.12058 1.72269C7.20622 1.50682 8.33153 1.61761 9.35419 2.04106C10.3768 2.46451 11.2509 3.1816 11.8659 4.10164C12.4809 5.02169 12.8091 6.10337 12.8091 7.2099C12.8091 8.6937 12.2195 10.1167 11.1699 11.1659C10.1203 12.2152 8.69676 12.8046 7.21243 12.8046V12.8046Z" fill="#7C7C8D"/>
</svg>
